<svg xmlns="http://www.w3.org/2000/svg" viewBox="0 0 1200 300" width="1200" height="300">
  <defs>
    <linearGradient id="bg" x1="0" y1="0" x2="1" y2="1"><stop offset="0" stop-color="#182033"/><stop offset="1" stop-color="#0b0f19"/></linearGradient>
    <linearGradient id="flame" x1="0" y1="1" x2="0" y2="0"><stop offset="0" stop-color="#ff6a00"/><stop offset="1" stop-color="#ffd166"/></linearGradient>
    <linearGradient id="text" x1="0" y1="0" x2="1" y2="0"><stop offset="0" stop-color="#ff8a1f"/><stop offset="1" stop-color="#ffc15e"/></linearGradient>
    <pattern id="grid" width="40" height="40" patternUnits="userSpaceOnUse"><path d="M40 0H0V40" fill="none" stroke="#1f2940" stroke-width="1"/></pattern>
    <filter id="shadow" x="-10%" y="-10%" width="120%" height="130%"><feDropShadow dx="0" dy="8" stdDeviation="10" flood-color="#000" flood-opacity=".5"/></filter>
  </defs>
  <rect width="1200" height="300" rx="24" fill="url(#bg)"/>
  <rect width="1200" height="300" rx="24" fill="url(#grid)" opacity=".6"/>
  <g transform="translate(60 72) scale(1.1)"><path d="M64 14c6 15-8 21-8 35 0 7 5 12 12 12s12-5.5 12-13c8 7 12 17 12 25H36c0-20 28-30 28-59z" fill="url(#flame)"/><path d="M18 76h92v10c0 4-3.5 7-7.5 7H88l7 15H33l7-15H25.5c-4 0-7.5-3-7.5-7z" fill="#c9d1e0"/></g>
  <text x="225" y="148" font-family="Segoe UI, Helvetica, Arial, sans-serif" font-size="78" font-weight="800" fill="url(#text)">PTForge</text>
  <text x="229" y="192" font-family="Segoe UI, Helvetica, Arial, sans-serif" font-size="21" fill="#aab4c8">Script, verify and audit Packet Tracer labs</text>
  <g font-family="Segoe UI, Helvetica, Arial, sans-serif" font-size="14" font-weight="600">
    <rect x="229" y="214" width="92" height="28" rx="14" fill="#16825d"/><text x="275" y="233" text-anchor="middle" fill="#fff">v1.1.0</text>
    <rect x="331" y="214" width="150" height="28" rx="14" fill="#1f2940" stroke="#2e3a58"/><text x="406" y="233" text-anchor="middle" fill="#9cdcfe">375+ functions</text>
    <rect x="491" y="214" width="150" height="28" rx="14" fill="#1f2940" stroke="#2e3a58"/><text x="566" y="233" text-anchor="middle" fill="#dcdcaa">VS Code style editor</text>
  </g>
  <g filter="url(#shadow)"><rect x="700" y="40" width="460" height="220" rx="10" fill="#1e1e1e" stroke="#333"/>
    <path d="M700 50a10 10 0 0 1 10-10h440a10 10 0 0 1 10 10v18H700z" fill="#3c3c3c"/>
    <circle cx="716" cy="54" r="5" fill="#ff5f57"/><circle cx="732" cy="54" r="5" fill="#febc2e"/><circle cx="748" cy="54" r="5" fill="#28c840"/>
    <text x="930.0" y="58" text-anchor="middle" font-family="Segoe UI, Helvetica, Arial, sans-serif" font-size="12" fill="#aaa">lab.js - PTForge</text>
    <rect x="700" y="242" width="460" height="18" fill="#007acc"/><path d="M700 242h460v8a10 10 0 0 1-10 10H710a10 10 0 0 1-10-10z" fill="#007acc"/>
    <text x="716" y="94" font-family="Consolas, Menlo, monospace" font-size="14.5" xml:space="preserve"><tspan fill="#6e7681"> 1  </tspan><tspan fill="#6a9955">// build, configure, verify</tspan></text>
    <text x="716" y="118" font-family="Consolas, Menlo, monospace" font-size="14.5" xml:space="preserve"><tspan fill="#6e7681"> 2  </tspan><tspan fill="#4fc1ff" font-weight="700">addDevice</tspan><tspan fill="#ffd700">(</tspan><tspan fill="#ce9178">"R1"</tspan><tspan fill="#d4d4d4">, </tspan><tspan fill="#ce9178">"2911"</tspan><tspan fill="#d4d4d4">, </tspan><tspan fill="#b5cea8">300</tspan><tspan fill="#d4d4d4">, </tspan><tspan fill="#b5cea8">80</tspan><tspan fill="#ffd700">)</tspan><tspan fill="#d4d4d4">;</tspan></text>
    <text x="716" y="142" font-family="Consolas, Menlo, monospace" font-size="14.5" xml:space="preserve"><tspan fill="#6e7681"> 3  </tspan><tspan fill="#4fc1ff" font-weight="700">createVlans</tspan><tspan fill="#ffd700">(</tspan><tspan fill="#ce9178">"S1"</tspan><tspan fill="#d4d4d4">, </tspan><tspan fill="#c586c0">{ </tspan><tspan fill="#b5cea8">10</tspan><tspan fill="#d4d4d4">: </tspan><tspan fill="#ce9178">"USERS"</tspan><tspan fill="#c586c0"> }</tspan><tspan fill="#ffd700">)</tspan><tspan fill="#d4d4d4">;</tspan></text>
    <text x="716" y="166" font-family="Consolas, Menlo, monospace" font-size="14.5" xml:space="preserve"><tspan fill="#6e7681"> 4  </tspan><tspan fill="#4fc1ff" font-weight="700">configureOspf</tspan><tspan fill="#ffd700">(</tspan><tspan fill="#ce9178">"R1"</tspan><tspan fill="#d4d4d4">, </tspan><tspan fill="#c586c0">{ </tspan><tspan fill="#9cdcfe">area</tspan><tspan fill="#d4d4d4">: </tspan><tspan fill="#b5cea8">0</tspan><tspan fill="#c586c0"> }</tspan><tspan fill="#ffd700">)</tspan><tspan fill="#d4d4d4">;</tspan></text>
    <text x="716" y="190" font-family="Consolas, Menlo, monospace" font-size="14.5" xml:space="preserve"><tspan fill="#6e7681"> 5  </tspan><tspan fill="#569cd6">var</tspan><tspan fill="#d4d4d4"> r = </tspan><tspan fill="#4fc1ff" font-weight="700">auditNetwork</tspan><tspan fill="#ffd700">()</tspan><tspan fill="#d4d4d4">;</tspan></text>
    <text x="716" y="214" font-family="Consolas, Menlo, monospace" font-size="14.5" xml:space="preserve"><tspan fill="#6e7681"> 6  </tspan><tspan fill="#4fc1ff" font-weight="700">endChecks</tspan><tspan fill="#ffd700">()</tspan><tspan fill="#d4d4d4">;</tspan><tspan fill="#6a9955">  // 100%</tspan></text></g>
</svg>
